<svg version="1.1" viewBox="0.0 0.0 860.2178477690288 413.9238845144357" fill="none" stroke="none" stroke-linecap="square" stroke-miterlimit="10" xmlns:xlink="http://www.w3.org/1999/xlink" xmlns="http://www.w3.org/2000/svg"><clipPath id="p.0"><path d="m0 0l860.21783 0l0 413.9239l-860.21783 0l0 -413.9239z" clip-rule="nonzero"/></clipPath><g clip-path="url(#p.0)"><path fill="#000000" fill-opacity="0.0" d="m0 0l860.21783 0l0 413.9239l-860.21783 0z" fill-rule="evenodd"/><path fill="#000000" fill-opacity="0.0" d="m149.21523 26.086615l0 318.26773" fill-rule="evenodd"/><path stroke="#000000" stroke-width="1.0" stroke-linejoin="round" stroke-linecap="butt" d="m149.21523 32.086613l0 312.26773" fill-rule="evenodd"/><path fill="#000000" stroke="#000000" stroke-width="1.0" stroke-linecap="butt" d="m150.86696 32.086613l-1.6517334 -4.5380955l-1.6517334 4.5380955z" fill-rule="evenodd"/><path fill="#000000" fill-opacity="0.0" d="m134.6063 320.3491l589.92126 0" fill-rule="evenodd"/><path stroke="#000000" stroke-width="1.0" stroke-linejoin="round" stroke-linecap="butt" d="m134.6063 320.3491l583.92126 0" fill-rule="evenodd"/><path fill="#000000" stroke="#000000" stroke-width="1.0" stroke-linecap="butt" d="m718.5276 322.00082l4.538086 -1.6517334l-4.538086 -1.6517334z" fill-rule="evenodd"/><path fill="#000000" fill-opacity="0.0" d="m362.08398 352.69553l221.22833 0l0 42.015747l-221.22833 0z" fill-rule="evenodd"/><path fill="#000000" d="m371.05273 379.61554l5.125 -13.359375l1.90625 0l5.46875 13.359375l-2.015625 0l-1.546875 -4.046875l-5.59375 0l-1.46875 4.046875l-1.875 0zm3.859375 -5.484375l4.53125 0l-1.40625 -3.703125q-0.625 -1.6875 -0.9375 -2.765625q-0.265625 1.28125 -0.71875 2.546875l-1.46875 3.921875zm9.834198 5.484375l0 -9.671875l1.46875 0l0 1.46875q0.5625 -1.03125 1.03125 -1.359375q0.484375 -0.328125 1.0625 -0.328125q0.828125 0 1.6875 0.53125l-0.5625 1.515625q-0.609375 -0.359375 -1.203125 -0.359375q-0.546875 0 -0.96875 0.328125q-0.421875 0.328125 -0.609375 0.890625q-0.28125 0.875 -0.28125 1.921875l0 5.0625l-1.625 0zm6.228302 -11.46875l0 -1.890625l1.640625 0l0 1.890625l-1.640625 0zm0 11.46875l0 -9.671875l1.640625 0l0 9.671875l-1.640625 0zm7.7229614 -1.46875l0.234375 1.453125q-0.6875 0.140625 -1.234375 0.140625q-0.890625 0 -1.390625 -0.28125q-0.484375 -0.28125 -0.6875 -0.734375q-0.203125 -0.46875 -0.203125 -1.9375l0 -5.578125l-1.203125 0l0 -1.265625l1.203125 0l0 -2.390625l1.625 -0.984375l0 3.375l1.65625 0l0 1.265625l-1.65625 0l0 5.671875q0 0.6875 0.078125 0.890625q0.09375 0.203125 0.28125 0.328125q0.203125 0.109375 0.578125 0.109375q0.265625 0 0.71875 -0.0625zm1.6051636 1.46875l0 -13.359375l1.640625 0l0 4.796875q1.140625 -1.328125 2.890625 -1.328125q1.078125 0 1.859375 0.421875q0.796875 0.421875 1.140625 1.171875q0.34375 0.75 0.34375 2.171875l0 6.125l-1.640625 0l0 -6.125q0 -1.234375 -0.53125 -1.796875q-0.53125 -0.5625 -1.515625 -0.5625q-0.71875 0 -1.359375 0.390625q-0.640625 0.375 -0.921875 1.015625q-0.265625 0.640625 -0.265625 1.78125l0 5.296875l-1.640625 0zm10.375732 0l0 -9.671875l1.46875 0l0 1.359375q0.453125 -0.71875 1.203125 -1.140625q0.765625 -0.4375 1.71875 -0.4375q1.078125 0 1.765625 0.453125q0.6875 0.4375 0.96875 1.234375q1.15625 -1.6875 2.984375 -1.6875q1.453125 0 2.21875 0.796875q0.78125 0.796875 0.78125 2.453125l0 6.640625l-1.640625 0l0 -6.09375q0 -0.984375 -0.15625 -1.40625q-0.15625 -0.4375 -0.578125 -0.703125q-0.421875 -0.265625 -0.984375 -0.265625q-1.015625 0 -1.6875 0.6875q-0.671875 0.671875 -0.671875 2.15625l0 5.625l-1.640625 0l0 -6.28125q0 -1.09375 -0.40625 -1.640625q-0.40625 -0.546875 -1.3125 -0.546875q-0.6875 0 -1.28125 0.359375q-0.59375 0.359375 -0.859375 1.0625q-0.25 0.703125 -0.25 2.03125l0 5.015625l-1.640625 0zm22.165802 -3.109375l1.6875 0.203125q-0.40625 1.484375 -1.484375 2.3125q-1.078125 0.8125 -2.765625 0.8125q-2.125 0 -3.375 -1.296875q-1.234375 -1.3125 -1.234375 -3.671875q0 -2.453125 1.25 -3.796875q1.265625 -1.34375 3.265625 -1.34375q1.9375 0 3.15625 1.328125q1.234375 1.3125 1.234375 3.703125q0 0.15625 0 0.4375l-7.21875 0q0.09375 1.59375 0.90625 2.453125q0.8125 0.84375 2.015625 0.84375q0.90625 0 1.546875 -0.46875q0.640625 -0.484375 1.015625 -1.515625zm-5.390625 -2.65625l5.40625 0q-0.109375 -1.21875 -0.625 -1.828125q-0.78125 -0.953125 -2.03125 -0.953125q-1.125 0 -1.90625 0.765625q-0.765625 0.75 -0.84375 2.015625zm12.719452 4.296875l0.234375 1.453125q-0.6875 0.140625 -1.234375 0.140625q-0.890625 0 -1.390625 -0.28125q-0.484375 -0.28125 -0.6875 -0.734375q-0.203125 -0.46875 -0.203125 -1.9375l0 -5.578125l-1.203125 0l0 -1.265625l1.203125 0l0 -2.390625l1.625 -0.984375l0 3.375l1.65625 0l0 1.265625l-1.65625 0l0 5.671875q0 0.6875 0.078125 0.890625q0.09375 0.203125 0.28125 0.328125q0.203125 0.109375 0.578125 0.109375q0.265625 0 0.71875 -0.0625zm1.6051941 -10.0l0 -1.890625l1.640625 0l0 1.890625l-1.640625 0zm0 11.46875l0 -9.671875l1.640625 0l0 9.671875l-1.640625 0zm10.457306 -3.546875l1.609375 0.21875q-0.265625 1.65625 -1.359375 2.609375q-1.078125 0.9375 -2.671875 0.9375q-1.984375 0 -3.1875 -1.296875q-1.203125 -1.296875 -1.203125 -3.71875q0 -1.578125 0.515625 -2.75q0.515625 -1.171875 1.578125 -1.75q1.0625 -0.59375 2.3125 -0.59375q1.578125 0 2.578125 0.796875q1.0 0.796875 1.28125 2.265625l-1.59375 0.234375q-0.234375 -0.96875 -0.8125 -1.453125q-0.578125 -0.5 -1.390625 -0.5q-1.234375 0 -2.015625 0.890625q-0.78125 0.890625 -0.78125 2.8125q0 1.953125 0.75 2.84375q0.75 0.875 1.953125 0.875q0.96875 0 1.609375 -0.59375q0.65625 -0.59375 0.828125 -1.828125zm8.698944 3.546875l0 -13.359375l1.765625 0l0 13.359375l-1.765625 0zm4.6832886 0l0 -9.671875l1.46875 0l0 1.375q1.0625 -1.59375 3.078125 -1.59375q0.875 0 1.609375 0.3125q0.734375 0.3125 1.09375 0.828125q0.375 0.5 0.515625 1.203125q0.09375 0.453125 0.09375 1.59375l0 5.953125l-1.640625 0l0 -5.890625q0 -1.0 -0.203125 -1.484375q-0.1875 -0.5 -0.671875 -0.796875q-0.484375 -0.296875 -1.140625 -0.296875q-1.046875 0 -1.8125 0.671875q-0.75 0.65625 -0.75 2.515625l0 5.28125l-1.640625 0zm13.953857 -1.46875l0.234375 1.453125q-0.6875 0.140625 -1.234375 0.140625q-0.890625 0 -1.390625 -0.28125q-0.484375 -0.28125 -0.6875 -0.734375q-0.203125 -0.46875 -0.203125 -1.9375l0 -5.578125l-1.203125 0l0 -1.265625l1.203125 0l0 -2.390625l1.625 -0.984375l0 3.375l1.65625 0l0 1.265625l-1.65625 0l0 5.671875q0 0.6875 0.078125 0.890625q0.09375 0.203125 0.28125 0.328125q0.203125 0.109375 0.578125 0.109375q0.265625 0 0.71875 -0.0625zm8.230164 -1.640625l1.6875 0.203125q-0.40625 1.484375 -1.484375 2.3125q-1.078125 0.8125 -2.765625 0.8125q-2.125 0 -3.375 -1.296875q-1.234375 -1.3125 -1.234375 -3.671875q0 -2.453125 1.25 -3.796875q1.265625 -1.34375 3.265625 -1.34375q1.9375 0 3.15625 1.328125q1.234375 1.3125 1.234375 3.703125q0 0.15625 0 0.4375l-7.21875 0q0.09375 1.59375 0.90625 2.453125q0.8125 0.84375 2.015625 0.84375q0.90625 0 1.546875 -0.46875q0.640625 -0.484375 1.015625 -1.515625zm-5.390625 -2.65625l5.40625 0q-0.109375 -1.21875 -0.625 -1.828125q-0.78125 -0.953125 -2.03125 -0.953125q-1.125 0 -1.90625 0.765625q-0.765625 0.75 -0.84375 2.015625zm9.141357 5.765625l0 -9.671875l1.46875 0l0 1.375q1.0625 -1.59375 3.078125 -1.59375q0.875 0 1.609375 0.3125q0.734375 0.3125 1.09375 0.828125q0.375 0.5 0.515625 1.203125q0.09375 0.453125 0.09375 1.59375l0 5.953125l-1.640625 0l0 -5.890625q0 -1.0 -0.203125 -1.484375q-0.1875 -0.5 -0.671875 -0.796875q-0.484375 -0.296875 -1.140625 -0.296875q-1.046875 0 -1.8125 0.671875q-0.75 0.65625 -0.75 2.515625l0 5.28125l-1.640625 0zm9.719452 -2.890625l1.625 -0.25q0.125 0.96875 0.75 1.5q0.625 0.515625 1.75 0.515625q1.125 0 1.671875 -0.453125q0.546875 -0.46875 0.546875 -1.09375q0 -0.546875 -0.484375 -0.875q-0.328125 -0.21875 -1.671875 -0.546875q-1.8125 -0.46875 -2.515625 -0.796875q-0.6875 -0.328125 -1.046875 -0.90625q-0.359375 -0.59375 -0.359375 -1.3125q0 -0.640625 0.296875 -1.1875q0.296875 -0.5625 0.8125 -0.921875q0.375 -0.28125 1.03125 -0.46875q0.671875 -0.203125 1.421875 -0.203125q1.140625 0 2.0 0.328125q0.859375 0.328125 1.265625 0.890625q0.421875 0.5625 0.578125 1.5l-1.609375 0.21875q-0.109375 -0.75 -0.640625 -1.171875q-0.515625 -0.421875 -1.46875 -0.421875q-1.140625 0 -1.625 0.375q-0.46875 0.375 -0.46875 0.875q0 0.3125 0.1875 0.578125q0.203125 0.265625 0.640625 0.4375q0.234375 0.09375 1.4375 0.421875q1.75 0.453125 2.4375 0.75q0.6875 0.296875 1.078125 0.859375q0.390625 0.5625 0.390625 1.40625q0 0.828125 -0.484375 1.546875q-0.46875 0.71875 -1.375 1.125q-0.90625 0.390625 -2.046875 0.390625q-1.875 0 -2.875 -0.78125q-0.984375 -0.78125 -1.25 -2.328125zm9.984375 -8.578125l0 -1.890625l1.640625 0l0 1.890625l-1.640625 0zm0 11.46875l0 -9.671875l1.640625 0l0 9.671875l-1.640625 0zm7.7229614 -1.46875l0.234375 1.453125q-0.6875 0.140625 -1.234375 0.140625q-0.890625 0 -1.390625 -0.28125q-0.484375 -0.28125 -0.6875 -0.734375q-0.203125 -0.46875 -0.203125 -1.9375l0 -5.578125l-1.203125 0l0 -1.265625l1.203125 0l0 -2.390625l1.625 -0.984375l0 3.375l1.65625 0l0 1.265625l-1.65625 0l0 5.671875q0 0.6875 0.078125 0.890625q0.09375 0.203125 0.28125 0.328125q0.203125 0.109375 0.578125 0.109375q0.265625 0 0.71875 -0.0625zm1.5270386 5.1875l-0.1875 -1.53125q0.546875 0.140625 0.9375 0.140625q0.546875 0 0.875 -0.1875q0.328125 -0.171875 0.546875 -0.5q0.15625 -0.25 0.5 -1.21875q0.046875 -0.140625 0.140625 -0.40625l-3.671875 -9.6875l1.765625 0l2.015625 5.59375q0.390625 1.078125 0.703125 2.25q0.28125 -1.125 0.671875 -2.203125l2.078125 -5.640625l1.640625 0l-3.6875 9.828125q-0.59375 1.609375 -0.921875 2.203125q-0.4375 0.8125 -1.0 1.1875q-0.5625 0.375 -1.34375 0.375q-0.484375 0 -1.0625 -0.203125z" fill-rule="nonzero"/><path fill="#000000" fill-opacity="0.0" d="m70.95538 278.63516l0 -221.22833l42.015747 0l0 221.22833z" fill-rule="evenodd"/><path fill="#000000" d="m97.87538 269.6664l-13.359375 -5.125l0 -1.90625l13.359375 -5.46875l0 2.015625l-4.046875 1.546875l0 5.59375l4.046875 1.46875l0 1.875zm-5.484375 -3.859375l0 -4.53125l-3.703125 1.40625q-1.6875 0.625 -2.765625 0.9375q1.28125 0.265625 2.546875 0.71875l3.921875 1.46875zm1.9375 -16.162308l0.21875 -1.609375q1.65625 0.265625 2.609375 1.359375q0.9375 1.078125 0.9375 2.671875q0 1.984375 -1.296875 3.1875q-1.296875 1.2031097 -3.71875 1.2031097q-1.578125 0 -2.75 -0.51560974q-1.171875 -0.515625 -1.75 -1.578125q-0.59375 -1.0625 -0.59375 -2.3125q0 -1.578125 0.796875 -2.578125q0.796875 -1.0 2.265625 -1.28125l0.234375 1.59375q-0.96875 0.234375 -1.453125 0.8125q-0.5 0.578125 -0.5 1.390625q0 1.234375 0.890625 2.015625q0.890625 0.78125 2.8125 0.78125q1.953125 0 2.84375 -0.75q0.875 -0.75 0.875 -1.953125q0 -0.96875 -0.59375 -1.609375q-0.59375 -0.65625 -1.828125 -0.828125zm3.546875 -3.015625l-13.359375 0l0 -1.640625l4.796875 0q-1.328125 -1.140625 -1.328125 -2.890625q0 -1.078125 0.421875 -1.859375q0.421875 -0.796875 1.171875 -1.140625q0.75 -0.34375 2.171875 -0.34375l6.125 0l0 1.640625l-6.125 0q-1.234375 0 -1.796875 0.53125q-0.5625 0.53125 -0.5625 1.515625q0 0.71875 0.390625 1.359375q0.375 0.640625 1.015625 0.921875q0.640625 0.265625 1.78125 0.265625l5.296875 0l0 1.640625zm-11.46875 -10.375717l-1.890625 0l0 -1.640625l1.890625 0l0 1.640625zm11.46875 0l-9.671875 0l0 -1.640625l9.671875 0l0 1.640625zm-3.109375 -10.769821l0.203125 -1.6875q1.484375 0.40625 2.3125 1.484375q0.8125 1.078125 0.8125 2.765625q0 2.125 -1.296875 3.375q-1.3125 1.234375 -3.671875 1.234375q-2.453125 0 -3.796875 -1.25q-1.34375 -1.265625 -1.34375 -3.265625q0 -1.9375 1.328125 -3.15625q1.3125 -1.234375 3.703125 -1.234375q0.15625 0 0.4375 0l0 7.21875q1.59375 -0.09375 2.453125 -0.90625q0.84375 -0.8125 0.84375 -2.015625q0 -0.90625 -0.46875 -1.546875q-0.484375 -0.640625 -1.515625 -1.015625zm-2.65625 5.390625l0 -5.40625q-1.21875 0.109375 -1.828125 0.625q-0.953125 0.78125 -0.953125 2.03125q0 1.125 0.765625 1.90625q0.75 0.765625 2.015625 0.84375zm5.765625 -11.828842l-9.671875 3.6875l0 -1.734375l5.796875 -2.078125q0.9375 -0.328125 1.9375 -0.625q-0.765625 -0.203125 -1.828125 -0.609375l-5.90625 -2.140625l0 -1.6875l9.671875 3.65625l0 1.53125zm-3.109375 -13.265625l0.203125 -1.6875q1.484375 0.40625 2.3125 1.484375q0.8125 1.078125 0.8125 2.765625q0 2.125 -1.296875 3.375q-1.3125 1.234375 -3.671875 1.234375q-2.453125 0 -3.796875 -1.25q-1.34375 -1.265625 -1.34375 -3.265625q0 -1.9375 1.328125 -3.15625q1.3125 -1.234375 3.703125 -1.234375q0.15625 0 0.4375 0l0 7.21875q1.59375 -0.09375 2.453125 -0.90625q0.84375 -0.8125 0.84375 -2.015625q0 -0.90625 -0.46875 -1.546875q-0.484375 -0.640625 -1.515625 -1.015625zm-2.65625 5.390625l0 -5.40625q-1.21875 0.109375 -1.828125 0.625q-0.953125 0.78125 -0.953125 2.03125q0 1.125 0.765625 1.90625q0.75 0.765625 2.015625 0.84375zm5.765625 -15.406967l-1.21875 0q1.4375 0.90625 1.4375 2.703125q0 1.15625 -0.640625 2.125q-0.640625 0.96875 -1.78125 1.5q-1.140625 0.53125 -2.625 0.53125q-1.453125 0 -2.625 -0.484375q-1.1875 -0.484375 -1.8125 -1.4375q-0.625 -0.96875 -0.625 -2.171875q0 -0.875 0.375 -1.546875q0.359375 -0.6875 0.953125 -1.109375l-4.796875 0l0 -1.640625l13.359375 0l0 1.53125zm-4.828125 5.171875q1.859375 0 2.78125 -0.78125q0.921875 -0.78125 0.921875 -1.84375q0 -1.078125 -0.875 -1.828125q-0.890625 -0.75 -2.6875 -0.75q-1.984375 0 -2.90625 0.765625q-0.9375 0.765625 -0.9375 1.890625q0 1.078125 0.890625 1.8125q0.890625 0.734375 2.8125 0.734375zm4.828125 -14.762146l-13.359375 0l0 -9.015625l1.578125 0l0 7.25l4.140625 0l0 -6.265625l1.578125 0l0 6.265625l6.0625 0l0 1.765625zm0 -11.224106l-13.359375 0l0 -1.78125l11.78125 0l0 -6.5625l1.578125 0l0 8.34375zm-6.5 -9.922592q-3.328125 0 -5.203125 -1.78125q-1.890625 -1.78125 -1.890625 -4.609375q0 -1.84375 0.890625 -3.328125q0.875 -1.484375 2.46875 -2.265625q1.578125 -0.78125 3.578125 -0.78125q2.03125 0 3.640625 0.828125q1.59375 0.8125 2.421875 2.3125q0.828125 1.5 0.828125 3.25q0 1.875 -0.90625 3.359375q-0.921875 1.484375 -2.5 2.25q-1.578125 0.765625 -3.328125 0.765625zm0.015625 -1.8125q2.421875 0 3.8125 -1.296875q1.390625 -1.296875 1.390625 -3.265625q0 -2.0 -1.40625 -3.28125q-1.40625 -1.28125 -3.984375 -1.28125q-1.625 0 -2.84375 0.546875q-1.21875 0.546875 -1.875 1.609375q-0.671875 1.0625 -0.671875 2.375q0 1.890625 1.296875 3.25q1.28125 1.34375 4.28125 1.34375zm6.484375 -13.230179l-13.359375 0l0 -5.046875q0 -1.328125 0.125 -2.03125q0.171875 -0.96875 0.640625 -1.640625q0.453125 -0.671875 1.28125 -1.078125q0.828125 -0.40625 1.828125 -0.40625q1.703125 0 2.890625 1.09375q1.171875 1.078125 1.171875 3.921875l0 3.421875l5.421875 0l0 1.765625zm-7.0 -1.765625l0 -3.453125q0 -1.71875 -0.640625 -2.4375q-0.640625 -0.71875 -1.796875 -0.71875q-0.84375 0 -1.4375 0.421875q-0.59375 0.421875 -0.78125 1.125q-0.125 0.4375 -0.125 1.640625l0 3.421875l4.78125 0zm7.234375 -9.240448l-13.8125 -3.875l0 -1.3125l13.8125 3.859375l0 1.328125zm-3.125 -5.761429l-0.25 -1.625q0.96875 -0.125 1.5 -0.75q0.515625 -0.625 0.515625 -1.75q0 -1.1250076 -0.453125 -1.6718826q-0.46875 -0.546875 -1.09375 -0.546875q-0.546875 0 -0.875 0.484375q-0.21875 0.328125 -0.546875 1.6718826q-0.46875 1.8125 -0.796875 2.515625q-0.328125 0.6875 -0.90625 1.046875q-0.59375 0.359375 -1.3125 0.359375q-0.640625 0 -1.1875 -0.296875q-0.5625 -0.296875 -0.921875 -0.8125q-0.28125 -0.375 -0.46875 -1.03125q-0.203125 -0.671875 -0.203125 -1.421875q0 -1.140625 0.328125 -2.0000076q0.328125 -0.859375 0.890625 -1.265625q0.5625 -0.421875 1.5 -0.578125l0.21875 1.609375q-0.75 0.109375 -1.171875 0.640625q-0.421875 0.5156326 -0.421875 1.4687576q0 1.140625 0.375 1.625q0.375 0.46875 0.875 0.46875q0.3125 0 0.578125 -0.1875q0.265625 -0.203125 0.4375 -0.640625q0.09375 -0.234375 0.421875 -1.4375q0.453125 -1.7500076 0.75 -2.4375076q0.296875 -0.6875 0.859375 -1.078125q0.5625 -0.390625 1.40625 -0.390625q0.828125 0 1.546875 0.484375q0.71875 0.46875 1.125 1.375q0.390625 0.90625 0.390625 2.0468826q0 1.875 -0.78125 2.875q-0.78125 0.984375 -2.328125 1.25z" fill-rule="nonzero"/><path fill="#000000" fill-opacity="0.0" d="m171.12862 320.3491l140.83946 -174.78479l322.46167 0" fill-rule="evenodd"/><path stroke="#000000" stroke-width="2.0" stroke-linejoin="round" stroke-linecap="butt" d="m171.12862 320.3491l140.83946 -174.78479l322.46167 0" fill-rule="evenodd"/><path fill="#000000" fill-opacity="0.0" d="m311.30447 35.81365l0 296.85037" fill-rule="evenodd"/><path stroke="#000000" stroke-width="1.0" stroke-linejoin="round" stroke-linecap="butt" stroke-dasharray="4.0,3.0" d="m311.30447 35.81365l0 296.85037" fill-rule="evenodd"/><path fill="#000000" fill-opacity="0.0" d="m162.4567 51.21522l221.22833 0l0 38.771656l-221.22833 0z" fill-rule="evenodd"/><path fill="#cc0000" d="m172.6442 75.575226l0 -11.453125l2.28125 0l2.71875 8.109375q0.375 1.125 0.546875 1.6875q0.1875 -0.625 0.609375 -1.828125l2.734375 -7.96875l2.046875 0l0 11.453125l-1.46875 0l0 -9.59375l-3.328125 9.59375l-1.359375 0l-3.3125 -9.75l0 9.75l-1.46875 0zm18.875 -2.671875l1.453125 0.171875q-0.34375 1.28125 -1.28125 1.984375q-0.921875 0.703125 -2.359375 0.703125q-1.828125 0 -2.890625 -1.125q-1.0625 -1.125 -1.0625 -3.140625q0 -2.09375 1.078125 -3.25q1.078125 -1.15625 2.796875 -1.15625q1.65625 0 2.703125 1.140625q1.0625 1.125 1.0625 3.171875q0 0.125 0 0.375l-6.1875 0q0.078125 1.375 0.765625 2.109375q0.703125 0.71875 1.734375 0.71875q0.78125 0 1.328125 -0.40625q0.546875 -0.40625 0.859375 -1.296875zm-4.609375 -2.28125l4.625 0q-0.09375 -1.046875 -0.53125 -1.5625q-0.671875 -0.8125 -1.734375 -0.8125q-0.96875 0 -1.640625 0.65625q-0.65625 0.640625 -0.71875 1.71875zm7.8359375 4.953125l0 -8.296875l1.25 0l0 1.15625q0.390625 -0.609375 1.03125 -0.96875q0.65625 -0.375 1.484375 -0.375q0.921875 0 1.515625 0.390625q0.59375 0.375 0.828125 1.0625q0.984375 -1.453125 2.5625 -1.453125q1.234375 0 1.890625 0.6875q0.671875 0.671875 0.671875 2.09375l0 5.703125l-1.390625 0l0 -5.234375q0 -0.84375 -0.140625 -1.203125q-0.140625 -0.375 -0.5 -0.59375q-0.359375 -0.234375 -0.84375 -0.234375q-0.875 0 -1.453125 0.578125q-0.578125 0.578125 -0.578125 1.859375l0 4.828125l-1.40625 0l0 -5.390625q0 -0.9375 -0.34375 -1.40625q-0.34375 -0.46875 -1.125 -0.46875q-0.59375 0 -1.09375 0.3125q-0.5 0.3125 -0.734375 0.921875q-0.21875 0.59375 -0.21875 1.71875l0 4.3125l-1.40625 0zm12.796875 -4.15625q0 -2.296875 1.28125 -3.40625q1.078125 -0.921875 2.609375 -0.921875q1.71875 0 2.796875 1.125q1.09375 1.109375 1.09375 3.09375q0 1.59375 -0.484375 2.515625q-0.484375 0.921875 -1.40625 1.4375q-0.90625 0.5 -2.0 0.5q-1.734375 0 -2.8125 -1.109375q-1.078125 -1.125 -1.078125 -3.234375zm1.453125 0q0 1.59375 0.6875 2.390625q0.703125 0.796875 1.75 0.796875q1.046875 0 1.734375 -0.796875q0.703125 -0.796875 0.703125 -2.4375q0 -1.53125 -0.703125 -2.328125q-0.6875 -0.796875 -1.734375 -0.796875q-1.046875 0 -1.75 0.796875q-0.6875 0.78125 -0.6875 2.375zm7.9609375 4.15625l0 -8.296875l1.265625 0l0 1.25q0.484375 -0.875 0.890625 -1.15625q0.40625 -0.28125 0.90625 -0.28125q0.703125 0 1.4375 0.453125l-0.484375 1.296875q-0.515625 -0.296875 -1.03125 -0.296875q-0.453125 0 -0.828125 0.28125q-0.359375 0.265625 -0.515625 0.765625q-0.234375 0.75 -0.234375 1.640625l0 4.34375l-1.40625 0zm5.28125 3.203125l-0.15625 -1.328125q0.453125 0.125 0.796875 0.125q0.46875 0 0.75 -0.15625q0.28125 -0.15625 0.46875 -0.4375q0.125 -0.203125 0.421875 -1.046875q0.046875 -0.109375 0.125 -0.34375l-3.140625 -8.3125l1.515625 0l1.71875 4.796875q0.34375 0.921875 0.609375 1.921875q0.234375 -0.96875 0.578125 -1.890625l1.765625 -4.828125l1.40625 0l-3.15625 8.4375q-0.5 1.375 -0.78125 1.890625q-0.375 0.6875 -0.859375 1.015625q-0.484375 0.328125 -1.15625 0.328125q-0.40625 0 -0.90625 -0.171875zm7.515625 -6.640625l0 -1.421875l4.3125 0l0 1.421875l-4.3125 0zm7.171875 3.4375l-1.3125 0l0 -11.453125l1.40625 0l0 4.078125q0.890625 -1.109375 2.28125 -1.109375q0.765625 0 1.4375 0.3125q0.6875 0.296875 1.125 0.859375q0.453125 0.5625 0.703125 1.359375q0.25 0.78125 0.25 1.671875q0 2.140625 -1.0625 3.3125q-1.046875 1.15625 -2.53125 1.15625q-1.46875 0 -2.296875 -1.234375l0 1.046875zm-0.015625 -4.21875q0 1.5 0.40625 2.15625q0.65625 1.09375 1.796875 1.09375q0.921875 0 1.59375 -0.796875q0.671875 -0.8125 0.671875 -2.390625q0 -1.625 -0.65625 -2.390625q-0.640625 -0.78125 -1.546875 -0.78125q-0.921875 0 -1.59375 0.796875q-0.671875 0.796875 -0.671875 2.3125zm7.0859375 0.0625q0 -2.296875 1.28125 -3.40625q1.078125 -0.921875 2.609375 -0.921875q1.71875 0 2.796875 1.125q1.09375 1.109375 1.09375 3.09375q0 1.59375 -0.484375 2.515625q-0.484375 0.921875 -1.40625 1.4375q-0.90625 0.5 -2.0 0.5q-1.734375 0 -2.8125 -1.109375q-1.078125 -1.125 -1.078125 -3.234375zm1.453125 0q0 1.59375 0.6875 2.390625q0.703125 0.796875 1.75 0.796875q1.046875 0 1.734375 -0.796875q0.703125 -0.796875 0.703125 -2.4375q0 -1.53125 -0.703125 -2.328125q-0.6875 -0.796875 -1.734375 -0.796875q-1.046875 0 -1.75 0.796875q-0.6875 0.78125 -0.6875 2.375zm13.4140625 4.15625l0 -1.21875q-0.96875 1.40625 -2.640625 1.40625q-0.734375 0 -1.375 -0.28125q-0.625 -0.28125 -0.9375 -0.703125q-0.3125 -0.4375 -0.4375 -1.046875q-0.078125 -0.421875 -0.078125 -1.3125l0 -5.140625l1.40625 0l0 4.59375q0 1.109375 0.078125 1.484375q0.140625 0.5625 0.5625 0.875q0.4375 0.3125 1.0625 0.3125q0.640625 0 1.1875 -0.3125q0.5625 -0.328125 0.78125 -0.890625q0.234375 -0.5625 0.234375 -1.625l0 -4.4375l1.40625 0l0 8.296875l-1.25 0zm3.4609375 0l0 -8.296875l1.265625 0l0 1.171875q0.90625 -1.359375 2.640625 -1.359375q0.75 0 1.375 0.265625q0.625 0.265625 0.9375 0.703125q0.3125 0.4375 0.4375 1.046875q0.078125 0.390625 0.078125 1.359375l0 5.109375l-1.40625 0l0 -5.046875q0 -0.859375 -0.171875 -1.28125q-0.15625 -0.4375 -0.578125 -0.6875q-0.40625 -0.25 -0.96875 -0.25q-0.90625 0 -1.5625 0.578125q-0.640625 0.5625 -0.640625 2.15625l0 4.53125l-1.40625 0zm14.2734375 0l0 -1.046875q-0.78125 1.234375 -2.3125 1.234375q-1.0 0 -1.828125 -0.546875q-0.828125 -0.546875 -1.296875 -1.53125q-0.453125 -0.984375 -0.453125 -2.25q0 -1.25 0.40625 -2.25q0.421875 -1.015625 1.25 -1.546875q0.828125 -0.546875 1.859375 -0.546875q0.75 0 1.328125 0.3125q0.59375 0.3125 0.953125 0.828125l0 -4.109375l1.40625 0l0 11.453125l-1.3125 0zm-4.4375 -4.140625q0 1.59375 0.671875 2.390625q0.671875 0.78125 1.578125 0.78125q0.921875 0 1.5625 -0.75q0.65625 -0.765625 0.65625 -2.3125q0 -1.703125 -0.65625 -2.5q-0.65625 -0.796875 -1.625 -0.796875q-0.9375 0 -1.5625 0.765625q-0.625 0.765625 -0.625 2.421875z" fill-rule="nonzero"/><path fill="#000000" fill-opacity="0.0" d="m336.86615 51.21522l221.22833 0l0 38.771656l-221.22833 0z" fill-rule="evenodd"/><path fill="#45818e" d="m355.2724 71.5596l1.515625 0.375q-0.46875 1.875 -1.71875 2.859375q-1.234375 0.984375 -3.015625 0.984375q-1.859375 0 -3.015625 -0.75q-1.15625 -0.765625 -1.765625 -2.1875q-0.609375 -1.4375 -0.609375 -3.078125q0 -1.796875 0.6875 -3.125q0.6875 -1.328125 1.9375 -2.015625q1.265625 -0.7031288 2.78125 -0.7031288q1.71875 0 2.890625 0.8750038q1.171875 0.875 1.640625 2.46875l-1.5 0.34375q-0.390625 -1.25 -1.15625 -1.8125q-0.75 -0.578125 -1.90625 -0.578125q-1.3125 0 -2.203125 0.640625q-0.890625 0.625 -1.25 1.703125q-0.359375 1.0625 -0.359375 2.1875q0 1.46875 0.421875 2.5625q0.4375 1.078125 1.328125 1.625q0.90625 0.53125 1.953125 0.53125q1.265625 0 2.140625 -0.734375q0.890625 -0.734375 1.203125 -2.171875zm2.6796875 -0.140625q0 -2.296875 1.28125 -3.40625q1.078125 -0.921875 2.609375 -0.921875q1.71875 0 2.796875 1.125q1.09375 1.109375 1.09375 3.09375q0 1.59375 -0.484375 2.515625q-0.484375 0.921875 -1.40625 1.4375q-0.90625 0.5 -2.0 0.5q-1.734375 0 -2.8125 -1.109375q-1.078125 -1.125 -1.078125 -3.234375zm1.453125 0q0 1.59375 0.6875 2.390625q0.703125 0.796875 1.75 0.796875q1.046875 0 1.734375 -0.796875q0.703125 -0.796875 0.703125 -2.4375q0 -1.53125 -0.703125 -2.328125q-0.6875 -0.796875 -1.734375 -0.796875q-1.046875 0 -1.75 0.796875q-0.6875 0.78125 -0.6875 2.375zm7.9765625 4.15625l0 -8.296875l1.25 0l0 1.15625q0.390625 -0.609375 1.03125 -0.96875q0.65625 -0.375 1.484375 -0.375q0.921875 0 1.515625 0.390625q0.59375 0.375 0.828125 1.0625q0.984375 -1.453125 2.5625 -1.453125q1.234375 0 1.890625 0.6875q0.671875 0.671875 0.671875 2.09375l0 5.703125l-1.390625 0l0 -5.234375q0 -0.84375 -0.140625 -1.203125q-0.140625 -0.375 -0.5 -0.59375q-0.359375 -0.234375 -0.84375 -0.234375q-0.875 0 -1.453125 0.578125q-0.578125 0.578125 -0.578125 1.859375l0 4.828125l-1.40625 0l0 -5.390625q0 -0.9375 -0.34375 -1.40625q-0.34375 -0.46875 -1.125 -0.46875q-0.59375 0 -1.09375 0.3125q-0.5 0.3125 -0.734375 0.921875q-0.21875 0.59375 -0.21875 1.71875l0 4.3125l-1.40625 0zm13.328125 3.1875l0 -11.484375l1.28125 0l0 1.078125q0.453125 -0.640625 1.015625 -0.953125q0.578125 -0.3125 1.390625 -0.3125q1.0625 0 1.875 0.546875q0.8125 0.546875 1.21875 1.546875q0.421875 0.984375 0.421875 2.171875q0 1.28125 -0.46875 2.296875q-0.453125 1.015625 -1.328125 1.5625q-0.859375 0.546875 -1.828125 0.546875q-0.703125 0 -1.265625 -0.296875q-0.546875 -0.296875 -0.90625 -0.75l0 4.046875l-1.40625 0zm1.265625 -7.296875q0 1.609375 0.640625 2.375q0.65625 0.765625 1.578125 0.765625q0.9375 0 1.609375 -0.796875q0.671875 -0.796875 0.671875 -2.453125q0 -1.59375 -0.65625 -2.375q-0.65625 -0.796875 -1.5625 -0.796875q-0.890625 0 -1.59375 0.84375q-0.6875 0.84375 -0.6875 2.4375zm13.0703125 4.109375l0 -1.21875q-0.96875 1.40625 -2.640625 1.40625q-0.734375 0 -1.375 -0.28125q-0.625 -0.28125 -0.9375 -0.703125q-0.3125 -0.4375 -0.4375 -1.046875q-0.078125 -0.421875 -0.078125 -1.3125l0 -5.140625l1.40625 0l0 4.59375q0 1.109375 0.078125 1.484375q0.140625 0.5625 0.5625 0.875q0.4375 0.3125 1.0625 0.3125q0.640625 0 1.1875 -0.3125q0.5625 -0.328125 0.78125 -0.890625q0.234375 -0.5625 0.234375 -1.625l0 -4.4375l1.40625 0l0 8.296875l-1.25 0zm6.5234375 -1.265625l0.203125 1.25q-0.59375 0.125 -1.0625 0.125q-0.765625 0 -1.1875 -0.234375q-0.421875 -0.25 -0.59375 -0.640625q-0.171875 -0.40625 -0.171875 -1.671875l0 -4.765625l-1.03125 0l0 -1.09375l1.03125 0l0 -2.0625l1.40625 -0.84375l0 2.90625l1.40625 0l0 1.09375l-1.40625 0l0 4.84375q0 0.609375 0.0625 0.78125q0.078125 0.171875 0.25 0.28125q0.171875 0.09375 0.484375 0.09375q0.234375 0 0.609375 -0.0625zm7.0546875 -1.40625l1.453125 0.171875q-0.34375 1.28125 -1.28125 1.984375q-0.921875 0.703125 -2.359375 0.703125q-1.828125 0 -2.890625 -1.125q-1.0625 -1.125 -1.0625 -3.140625q0 -2.09375 1.078125 -3.25q1.078125 -1.15625 2.796875 -1.15625q1.65625 0 2.703125 1.140625q1.0625 1.125 1.0625 3.171875q0 0.125 0 0.375l-6.1875 0q0.078125 1.375 0.765625 2.109375q0.703125 0.71875 1.734375 0.71875q0.78125 0 1.328125 -0.40625q0.546875 -0.40625 0.859375 -1.296875zm-4.609375 -2.28125l4.625 0q-0.09375 -1.046875 -0.53125 -1.5625q-0.671875 -0.8125 -1.734375 -0.8125q-0.96875 0 -1.640625 0.65625q-0.65625 0.640625 -0.71875 1.71875zm7.2890625 1.515625l0 -1.421875l4.3125 0l0 1.421875l-4.3125 0zm7.171875 3.4375l-1.3125 0l0 -11.453125l1.40625 0l0 4.078125q0.890625 -1.109375 2.28125 -1.109375q0.765625 0 1.4375 0.3125q0.6875 0.296875 1.125 0.859375q0.453125 0.5625 0.703125 1.359375q0.25 0.78125 0.25 1.671875q0 2.140625 -1.0625 3.3125q-1.046875 1.15625 -2.53125 1.15625q-1.46875 0 -2.296875 -1.234375l0 1.046875zm-0.015625 -4.21875q0 1.5 0.40625 2.15625q0.65625 1.09375 1.796875 1.09375q0.921875 0 1.59375 -0.796875q0.671875 -0.8125 0.671875 -2.390625q0 -1.625 -0.65625 -2.390625q-0.640625 -0.78125 -1.546875 -0.78125q-0.921875 0 -1.59375 0.796875q-0.671875 0.796875 -0.671875 2.3125zm7.0859375 0.0625q0 -2.296875 1.28125 -3.40625q1.078125 -0.921875 2.609375 -0.921875q1.71875 0 2.796875 1.125q1.09375 1.109375 1.09375 3.09375q0 1.59375 -0.484375 2.515625q-0.484375 0.921875 -1.40625 1.4375q-0.90625 0.5 -2.0 0.5q-1.734375 0 -2.8125 -1.109375q-1.078125 -1.125 -1.078125 -3.234375zm1.453125 0q0 1.59375 0.6875 2.390625q0.703125 0.796875 1.75 0.796875q1.046875 0 1.734375 -0.796875q0.703125 -0.796875 0.703125 -2.4375q0 -1.53125 -0.703125 -2.328125q-0.6875 -0.796875 -1.734375 -0.796875q-1.046875 0 -1.75 0.796875q-0.6875 0.78125 -0.6875 2.375zm13.4140625 4.15625l0 -1.21875q-0.96875 1.40625 -2.640625 1.40625q-0.734375 0 -1.375 -0.28125q-0.625 -0.28125 -0.9375 -0.703125q-0.3125 -0.4375 -0.4375 -1.046875q-0.078125 -0.421875 -0.078125 -1.3125l0 -5.140625l1.40625 0l0 4.59375q0 1.109375 0.078125 1.484375q0.140625 0.5625 0.5625 0.875q0.4375 0.3125 1.0625 0.3125q0.640625 0 1.1875 -0.3125q0.5625 -0.328125 0.78125 -0.890625q0.234375 -0.5625 0.234375 -1.625l0 -4.4375l1.40625 0l0 8.296875l-1.25 0zm3.4609375 0l0 -8.296875l1.265625 0l0 1.171875q0.90625 -1.359375 2.640625 -1.359375q0.75 0 1.375 0.265625q0.625 0.265625 0.9375 0.703125q0.3125 0.4375 0.4375 1.046875q0.078125 0.390625 0.078125 1.359375l0 5.109375l-1.40625 0l0 -5.046875q0 -0.859375 -0.171875 -1.28125q-0.15625 -0.4375 -0.578125 -0.6875q-0.40625 -0.25 -0.96875 -0.25q-0.90625 0 -1.5625 0.578125q-0.640625 0.5625 -0.640625 2.15625l0 4.53125l-1.40625 0zm14.2734375 0l0 -1.046875q-0.78125 1.234375 -2.3125 1.234375q-1.0 0 -1.828125 -0.546875q-0.828125 -0.546875 -1.296875 -1.53125q-0.453125 -0.984375 -0.453125 -2.25q0 -1.25 0.40625 -2.25q0.421875 -1.015625 1.25 -1.546875q0.828125 -0.546875 1.859375 -0.546875q0.75 0 1.328125 0.3125q0.59375 0.3125 0.953125 0.828125l0 -4.109375l1.40625 0l0 11.453125l-1.3125 0zm-4.4375 -4.140625q0 1.59375 0.671875 2.390625q0.671875 0.78125 1.578125 0.78125q0.921875 0 1.5625 -0.75q0.65625 -0.765625 0.65625 -2.3125q0 -1.703125 -0.65625 -2.5q-0.65625 -0.796875 -1.625 -0.796875q-0.9375 0 -1.5625 0.765625q-0.625 0.765625 -0.625 2.421875z" fill-rule="nonzero"/><path fill="#990000" d="m288.5748 70.60105l5.165344 -5.1653595l0 2.5826797l10.677185 0l0 5.165352l-10.677185 0l0 2.5826797z" fill-rule="evenodd"/><path fill="#45818e" d="m334.03412 70.60105l-5.165344 5.165352l0 -2.5826797l-10.677185 0l0 -5.165352l10.677185 0l0 -2.5826797z" fill-rule="evenodd"/><path fill="#000000" fill-opacity="0.0" d="m312.6404 145.5643l-162.74014 0" fill-rule="evenodd"/><path stroke="#000000" stroke-width="1.0" stroke-linejoin="round" stroke-linecap="butt" stroke-dasharray="4.0,3.0" d="m312.6404 145.5643l-162.74014 0" fill-rule="evenodd"/><path fill="#000000" fill-opacity="0.0" d="m112.97113 202.96588l0 -113.480316l35.55905 0l0 113.480316z" fill-rule="evenodd"/><path fill="#000000" d="m134.77113 192.93463l-9.546883 0l0 -3.59375q0 -0.953125 0.09375 -1.453125q0.125 -0.703125 0.453125 -1.171875q0.328125 -0.484375 0.921875 -0.765625q0.59375 -0.296875 1.296875 -0.296875q1.2187576 0 2.0625076 0.78125q0.84375 0.765625 0.84375 2.796875l0 2.4375l3.875 0l0 1.265625zm-5.0 -1.265625l0 -2.453125q0 -1.234375 -0.453125 -1.75q-0.46875 -0.515625 -1.28125 -0.515625q-0.6093826 0 -1.0312576 0.3125q-0.421875 0.296875 -0.5625 0.796875q-0.09375 0.3125 -0.09375 1.171875l0 2.4375l3.4218826 0zm2.78125 -12.202255l0.140625 -1.203125q1.0625 0.28125 1.65625 1.0625q0.578125 0.765625 0.578125 1.96875q0 1.515625 -0.9375 2.40625q-0.9375 0.890625 -2.609375 0.890625q-1.75 0 -2.703125 -0.890625q-0.9687576 -0.90625 -0.9687576 -2.34375q0 -1.390625 0.9375076 -2.265625q0.9375 -0.875 2.65625 -0.875q0.109375 0 0.3125 0l0 5.15625q1.140625 -0.0625 1.75 -0.640625q0.59375 -0.578125 0.59375 -1.4375q0 -0.65625 -0.328125 -1.109375q-0.34375 -0.453125 -1.078125 -0.71875zm-1.90625 3.84375l0 -3.859375q-0.859375 0.078125 -1.296875 0.4375q-0.6875 0.5625 -0.6875 1.453125q0 0.8125 0.546875 1.359375q0.53125 0.546875 1.4375 0.609375zm3.265625 -11.037476q0.5625 0.65625 0.796875 1.265625q0.21875 0.59375 0.21875 1.28125q0 1.140625 -0.546875 1.75q-0.5625 0.609375 -1.4375 0.609375q-0.5 0 -0.921875 -0.21875q-0.421875 -0.234375 -0.671875 -0.609375q-0.25 -0.375 -0.390625 -0.84375q-0.078125 -0.34375 -0.171875 -1.046875q-0.171875 -1.421875 -0.40625 -2.09375q-0.234375 0 -0.296875 0q-0.71875 0 -1.015625 0.328125q-0.390625 0.453125 -0.390625 1.34375q0 0.8125 0.296875 1.21875q0.28125 0.390625 1.015625 0.578125l-0.15625 1.140625q-0.734375 -0.15625 -1.1875 -0.515625q-0.453125 -0.359375 -0.6875076 -1.03125q-0.25 -0.671875 -0.25 -1.5625q0 -0.890625 0.203125 -1.4375q0.20313263 -0.5625 0.5312576 -0.8125q0.3125 -0.265625 0.796875 -0.375q0.296875 -0.046875 1.078125 -0.046875l1.5625 0q1.625 0 2.0625 -0.078125q0.4375 -0.078125 0.828125 -0.296875l0 1.21875q-0.359375 0.1875 -0.859375 0.234375zm-2.609375 0.09375q0.265625 0.640625 0.4375 1.921875q0.109375 0.71875 0.25 1.015625q0.125 0.296875 0.375 0.46875q0.25 0.15625 0.546875 0.15625q0.46875 0 0.78125 -0.34375q0.3125 -0.359375 0.3125 -1.046875q0 -0.671875 -0.296875 -1.203125q-0.296875 -0.53125 -0.8125 -0.78125q-0.390625 -0.1875 -1.171875 -0.1875l-0.421875 0zm3.46875 -3.0062256l-9.546883 0l0 -1.171875l5.4531326 0l-2.8125076 -2.765625l0 -1.515625l2.5625076 2.640625l4.34375 -2.90625l0 1.4375l-3.53125 2.28125l0.796875 0.828125l2.734375 0l0 1.171875zm0 -10.570175l-9.546883 0l0 -6.4375l1.125 0l0 5.171875l2.9687576 0l0 -4.46875l1.125 0l0 4.46875l4.328125 0l0 1.265625zm0 -8.016357l-9.546883 0l0 -1.265625l8.421883 0l0 -4.703125l1.125 0l0 5.96875zm-4.640625 -7.0843506q-2.3750076 0 -3.7187576 -1.28125q-1.34375 -1.28125 -1.34375 -3.296875q0 -1.3125 0.625 -2.375q0.625 -1.0625 1.765625 -1.609375q1.1250076 -0.5625 2.5625076 -0.5625q1.4375 0 2.59375 0.59375q1.140625 0.578125 1.734375 1.65625q0.578125 1.0625 0.578125 2.3125q0 1.34375 -0.640625 2.40625q-0.65625 1.0625 -1.78125 1.609375q-1.125 0.546875 -2.375 0.546875zm0.015625 -1.3125q1.71875 0 2.71875 -0.921875q0.984375 -0.921875 0.984375 -2.328125q0 -1.421875 -1.0 -2.34375q-1.0 -0.921875 -2.84375 -0.921875q-1.15625 0 -2.0312576 0.40625q-0.875 0.390625 -1.34375 1.15625q-0.484375 0.75 -0.484375 1.6875q0 1.34375 0.921875 2.3125q0.921875 0.953125 3.0781326 0.953125zm4.625 -9.445175l-9.546883 0l0 -3.59375q0 -0.953125 0.09375 -1.453125q0.125 -0.703125 0.453125 -1.171875q0.328125 -0.484375 0.921875 -0.765625q0.59375 -0.296875 1.296875 -0.296875q1.2187576 0 2.0625076 0.78125q0.84375 0.765625 0.84375 2.796875l0 2.4375l3.875 0l0 1.265625zm-5.0 -1.265625l0 -2.453125q0 -1.234375 -0.453125 -1.75q-0.46875 -0.515625 -1.28125 -0.515625q-0.6093826 0 -1.0312576 0.3125q-0.421875 0.296875 -0.5625 0.796875q-0.09375 0.3125 -0.09375 1.171875l0 2.4375l3.4218826 0zm5.15625 -6.5928802l-9.859383 -2.765625l0 -0.9375l9.859383 2.765625l0 0.9375zm-2.21875 -4.1092377l-0.1875 -1.15625q0.703125 -0.109375 1.078125 -0.546875q0.359375 -0.453125 0.359375 -1.25q0 -0.8125 -0.328125 -1.203125q-0.328125 -0.390625 -0.765625 -0.390625q-0.390625 0 -0.625 0.359375q-0.15625 0.234375 -0.390625 1.1875q-0.328125 1.296875 -0.5625 1.796875q-0.25 0.484375 -0.65625 0.75q-0.421875 0.25 -0.9375 0.25q-0.453125 0 -0.84375 -0.203125q-0.40625 -0.21875 -0.671875 -0.578125q-0.18750763 -0.28125 -0.32813263 -0.75q-0.140625 -0.46875 -0.140625 -1.015625q0 -0.8125 0.234375 -1.421875q0.23438263 -0.609375 0.6406326 -0.90625q0.390625 -0.296875 1.0625 -0.40625l0.15625 1.140625q-0.53125 0.078125 -0.828125 0.453125q-0.3125 0.375 -0.3125 1.0625q0 0.8125 0.265625 1.15625q0.265625 0.34375 0.625 0.34375q0.234375 0 0.421875 -0.140625q0.1875 -0.15625 0.3125 -0.453125q0.0625 -0.171875 0.296875 -1.03125q0.328125 -1.25 0.546875 -1.734375q0.203125 -0.5 0.609375 -0.78125q0.40625 -0.28125 1.0 -0.28125q0.59375 0 1.109375 0.34375q0.515625 0.34375 0.796875 1.0q0.28125 0.640625 0.28125 1.453125q0 1.34375 -0.5625 2.046875q-0.5625 0.703125 -1.65625 0.90625z" fill-rule="nonzero"/></g></svg>